<svg xmlns="http://www.w3.org/2000/svg" width="242.28" height="230" viewBox="0 0 242.28 230">
  <g id="logo-redux" transform="translate(-11.15 -13.3)">
    <path id="Path_6" data-name="Path 6" d="M179.025,101.646a17.317,17.317,0,0,0-1.85-34.531h-.617A17.25,17.25,0,0,0,159.909,85,17.706,17.706,0,0,0,164.842,96.4c-10.483,20.657-26.515,35.764-50.563,48.4-16.34,8.633-33.3,11.716-50.255,9.558-13.874-1.85-24.665-8.016-31.448-18.19-9.866-15.107-10.791-31.448-2.466-47.788A72.574,72.574,0,0,1,51.075,63.724C49.842,59.716,47.992,52.933,47.067,48,2.362,80.373,6.987,124.153,20.553,144.81c10.174,15.416,30.831,24.973,53.646,24.973a75.793,75.793,0,0,0,18.5-2.158C132.161,159.917,162.067,136.485,179.025,101.646Z" transform="translate(0 72.284)" fill="#fff"/>
    <path id="Path_7" data-name="Path 7" d="M174.238,88c-23.432-27.44-57.962-42.547-97.426-42.547H71.879A16.941,16.941,0,0,0,56.772,36.2h-.617a17.271,17.271,0,0,0,.617,34.531h.617A17.367,17.367,0,0,0,72.5,60.248h5.55a117.51,117.51,0,0,1,65.67,20.04c15.416,10.174,26.515,23.432,32.681,39.464,5.241,12.949,4.933,25.59-.617,36.381-8.633,16.34-23.123,25.281-42.239,25.281a78.853,78.853,0,0,1-30.214-6.475c-3.391,3.083-9.558,8.016-13.874,11.1,13.257,6.166,26.823,9.558,39.772,9.558,29.6,0,51.488-16.341,59.812-32.681,8.941-17.882,8.324-48.713-14.8-74.92Z" transform="translate(59.049 47.703)" fill="#fff"/>
    <path id="Path_8" data-name="Path 8" d="M43.967,179.171A17.318,17.318,0,0,0,61.233,195.82h.617a17.271,17.271,0,0,0-.617-34.531h-.617a5.247,5.247,0,0,0-2.158.308c-12.641-20.965-17.882-43.78-16.032-68.445,1.233-18.5,7.4-34.531,18.19-47.788C69.557,33.957,86.822,28.407,98.538,28.1c32.681-.617,46.555,40.08,47.48,56.421,4.008.925,10.791,3.083,15.416,4.625C157.734,39.2,126.9,13.3,97.305,13.3c-27.748,0-53.338,20.04-63.512,49.638C19.611,102.4,28.86,140.324,46.125,170.23a13.85,13.85,0,0,0-2.158,8.941Z" transform="translate(32.698 0)" fill="#fff"/>
  </g>
</svg>
