<svg xmlns="http://www.w3.org/2000/svg" width="258.27" height="230" viewBox="0 0 258.27 230">
  <g id="logo-context" transform="translate(-175.7 -78)">
    <path id="Path_4" data-name="Path 4" d="M433.97,193.026c0-17.109-21.426-33.323-54.276-43.378,7.581-33.481,4.211-60.119-10.634-68.647a23.081,23.081,0,0,0-11.792-2.948v11.74a12.19,12.19,0,0,1,6,1.369c7.16,4.106,10.266,19.741,7.844,39.851-.579,4.949-1.527,10.16-2.685,15.477A255.117,255.117,0,0,0,335,140.751a256.786,256.786,0,0,0-21.9-26.322c17.162-15.951,33.271-24.69,44.221-24.69V78c-14.477,0-33.429,10.318-52.591,28.217-19.162-17.794-38.114-28.006-52.591-28.006V89.95c10.9,0,27.059,8.686,44.221,24.532a248.643,248.643,0,0,0-21.742,26.269,245.832,245.832,0,0,0-33.481,5.791c-1.211-5.264-2.106-10.371-2.737-15.267-2.474-20.11.579-35.745,7.686-39.9A11.716,11.716,0,0,1,252.139,90V78.263a23.473,23.473,0,0,0-11.9,2.948c-14.793,8.528-18.109,35.113-10.476,68.489C197.021,159.808,175.7,175.97,175.7,193.026c0,17.109,21.426,33.323,54.276,43.378-7.581,33.481-4.211,60.119,10.634,68.647A23.142,23.142,0,0,0,252.454,308c14.477,0,33.429-10.318,52.591-28.217,19.162,17.794,38.114,28.006,52.591,28.006a23.472,23.472,0,0,0,11.9-2.948c14.793-8.528,18.109-35.113,10.476-68.489,32.639-10.055,53.96-26.269,53.96-43.326Zm-68.542-35.113c-1.948,6.791-4.369,13.793-7.107,20.794-2.158-4.211-4.422-8.423-6.9-12.634-2.422-4.211-5-8.318-7.581-12.319C351.319,154.86,358.531,156.228,365.428,157.913Zm-24.111,56.065c-4.106,7.107-8.318,13.845-12.687,20.11-7.844.684-15.793,1.053-23.795,1.053-7.949,0-15.9-.368-23.69-1q-6.554-9.4-12.74-20-6-10.344-10.95-20.952c3.264-7.054,6.949-14.108,10.9-21,4.106-7.107,8.318-13.845,12.687-20.11,7.844-.684,15.793-1.053,23.795-1.053,7.949,0,15.9.369,23.69,1q6.554,9.4,12.74,20,6,10.344,10.95,20.952c-3.317,7.054-6.949,14.108-10.9,21Zm17-6.844c2.843,7.054,5.264,14.108,7.265,20.952-6.9,1.685-14.161,3.106-21.689,4.212,2.579-4.054,5.159-8.212,7.581-12.477,2.422-4.211,4.685-8.476,6.844-12.687ZM304.94,263.306a217.025,217.025,0,0,1-14.635-16.846c4.738.211,9.581.368,14.477.368,4.948,0,9.844-.105,14.635-.368A205.482,205.482,0,0,1,304.94,263.306ZM265.773,232.3c-7.475-1.106-14.688-2.474-21.584-4.159,1.948-6.791,4.369-13.793,7.107-20.794,2.158,4.211,4.422,8.423,6.9,12.634S263.194,228.3,265.773,232.3Zm38.9-109.551a217.04,217.04,0,0,1,14.635,16.846c-4.738-.211-9.581-.368-14.477-.368-4.948,0-9.844.105-14.635.368A205.484,205.484,0,0,1,304.677,122.747Zm-38.956,31.007c-2.58,4.054-5.159,8.212-7.581,12.477-2.422,4.211-4.685,8.423-6.844,12.634-2.843-7.054-5.264-14.109-7.265-20.952,6.9-1.632,14.161-3.053,21.689-4.159Zm-47.643,65.91c-18.636-7.949-30.691-18.373-30.691-26.638s12.055-18.741,30.691-26.638c4.527-1.948,9.476-3.685,14.582-5.317a252.844,252.844,0,0,0,11.845,32.06,249.276,249.276,0,0,0-11.687,31.9c-5.212-1.632-10.16-3.422-14.74-5.37ZM246.4,294.892c-7.16-4.106-10.266-19.741-7.844-39.851.579-4.949,1.527-10.16,2.685-15.477A255.121,255.121,0,0,0,274.67,245.3a256.8,256.8,0,0,0,21.9,26.322c-17.162,15.951-33.271,24.69-44.221,24.69a12.563,12.563,0,0,1-5.949-1.421Zm124.871-40.114c2.474,20.11-.579,35.745-7.686,39.9a11.716,11.716,0,0,1-6.054,1.369c-10.9,0-27.059-8.686-44.221-24.532a248.64,248.64,0,0,0,21.742-26.269,245.833,245.833,0,0,0,33.481-5.791A147.383,147.383,0,0,1,371.271,254.777Zm20.268-35.113c-4.527,1.948-9.476,3.685-14.582,5.317a252.844,252.844,0,0,0-11.845-32.06,249.268,249.268,0,0,0,11.687-31.9c5.212,1.632,10.16,3.422,14.793,5.37,18.636,7.949,30.691,18.373,30.691,26.638-.053,8.265-12.108,18.741-30.744,26.638ZM252.086,78.211Z" transform="translate(0 0)" fill="#fff"/>
    <circle id="Ellipse_5" data-name="Ellipse 5" cx="22.85" cy="22.85" r="22.85" transform="translate(281.932 170.177)" fill="#fff"/>
    <path id="Path_5" data-name="Path 5" d="M520.5,78.1Z" transform="translate(-163.285 -0.05)" fill="#61dafb"/>
  </g>
</svg>
